<mxfile host="65bd71144e">
    <diagram id="bweDGT5rayBKNCHjIQfc" name="Page-1">
        <mxGraphModel dx="1081" dy="787" grid="1" gridSize="10" guides="1" tooltips="1" connect="1" arrows="1" fold="1" page="1" pageScale="1" pageWidth="1169" pageHeight="827" background="#ffffff" math="0" shadow="0">
            <root>
                <mxCell id="0"/>
                <mxCell id="1" parent="0"/>
                <mxCell id="19" value="" style="shape=curlyBracket;whiteSpace=wrap;html=1;rounded=1;labelPosition=left;verticalLabelPosition=middle;align=right;verticalAlign=middle;rotation=90;strokeColor=#000000;" vertex="1" parent="1">
                    <mxGeometry x="706" y="60" width="20" height="200" as="geometry"/>
                </mxCell>
                <mxCell id="21" value="data[]" style="text;html=1;align=center;verticalAlign=middle;resizable=0;points=[];autosize=1;strokeColor=none;fillColor=none;fontColor=#000000;" vertex="1" parent="1">
                    <mxGeometry x="691" y="120" width="50" height="30" as="geometry"/>
                </mxCell>
                <mxCell id="35" value="" style="group;strokeColor=#000000;" vertex="1" connectable="0" parent="1">
                    <mxGeometry x="260" y="180" width="566" height="60" as="geometry"/>
                </mxCell>
                <mxCell id="3" value="stream" style="rounded=0;whiteSpace=wrap;html=1;fillColor=#1ba1e2;fontColor=#000000;strokeColor=#000000;" vertex="1" parent="35">
                    <mxGeometry width="190" height="30" as="geometry"/>
                </mxCell>
                <mxCell id="4" value="iskey=0" style="rounded=0;whiteSpace=wrap;html=1;fillColor=#cdeb8b;strokeColor=#000000;fontColor=#000000;" vertex="1" parent="35">
                    <mxGeometry y="30" width="90" height="30" as="geometry"/>
                </mxCell>
                <mxCell id="5" value="raxNode(tb)" style="rounded=0;whiteSpace=wrap;html=1;fillColor=#1ba1e2;fontColor=#000000;strokeColor=#000000;" vertex="1" parent="35">
                    <mxGeometry width="566" height="30" as="geometry"/>
                </mxCell>
                <mxCell id="6" value="" style="edgeStyle=none;html=1;fontColor=#000000;strokeColor=#000000;" edge="1" parent="35" source="5">
                    <mxGeometry relative="1" as="geometry">
                        <mxPoint x="340" y="30" as="targetPoint"/>
                    </mxGeometry>
                </mxCell>
                <mxCell id="7" value="isnull=0" style="rounded=0;whiteSpace=wrap;html=1;fillColor=#cdeb8b;strokeColor=#000000;fontColor=#000000;" vertex="1" parent="35">
                    <mxGeometry x="90" y="30" width="90" height="30" as="geometry"/>
                </mxCell>
                <mxCell id="8" value="iscompr=0" style="rounded=0;whiteSpace=wrap;html=1;fillColor=#cdeb8b;strokeColor=#000000;fontColor=#000000;" vertex="1" parent="35">
                    <mxGeometry x="180" y="30" width="90" height="30" as="geometry"/>
                </mxCell>
                <mxCell id="9" value="t" style="rounded=0;whiteSpace=wrap;html=1;fillColor=#cdeb8b;strokeColor=#000000;fontColor=#000000;" vertex="1" parent="35">
                    <mxGeometry x="360" y="30" width="36" height="30" as="geometry"/>
                </mxCell>
                <mxCell id="10" value="value" style="rounded=0;whiteSpace=wrap;html=1;fillColor=#fa6800;strokeColor=#000000;fontColor=#000000;" vertex="1" parent="35">
                    <mxGeometry x="504" y="30" width="62" height="30" as="geometry"/>
                </mxCell>
                <mxCell id="12" value="size=2" style="rounded=0;whiteSpace=wrap;html=1;fillColor=#cdeb8b;strokeColor=#000000;fontColor=#000000;" vertex="1" parent="35">
                    <mxGeometry x="270" y="30" width="90" height="30" as="geometry"/>
                </mxCell>
                <mxCell id="14" value="b" style="rounded=0;whiteSpace=wrap;html=1;fillColor=#fa6800;strokeColor=#000000;fontColor=#000000;" vertex="1" parent="35">
                    <mxGeometry x="396" y="30" width="36" height="30" as="geometry"/>
                </mxCell>
                <mxCell id="16" value="t-ptr" style="rounded=0;whiteSpace=wrap;html=1;fillColor=#fa6800;strokeColor=#000000;fontColor=#000000;" vertex="1" parent="35">
                    <mxGeometry x="432" y="30" width="36" height="30" as="geometry"/>
                </mxCell>
                <mxCell id="17" value="b-ptr" style="rounded=0;whiteSpace=wrap;html=1;fillColor=#fa6800;strokeColor=#000000;fontColor=#000000;" vertex="1" parent="35">
                    <mxGeometry x="468" y="30" width="36" height="30" as="geometry"/>
                </mxCell>
                <mxCell id="20" value="t" style="rounded=0;whiteSpace=wrap;html=1;fillColor=#fa6800;strokeColor=#000000;fontColor=#000000;" vertex="1" parent="35">
                    <mxGeometry x="360" y="30" width="36" height="30" as="geometry"/>
                </mxCell>
                <mxCell id="38" style="edgeStyle=orthogonalEdgeStyle;curved=1;html=1;entryX=0.5;entryY=0;entryDx=0;entryDy=0;strokeColor=#000000;" edge="1" parent="1" source="16" target="24">
                    <mxGeometry relative="1" as="geometry"/>
                </mxCell>
                <mxCell id="39" style="edgeStyle=orthogonalEdgeStyle;curved=1;html=1;strokeColor=#000000;" edge="1" parent="1" source="17">
                    <mxGeometry relative="1" as="geometry">
                        <mxPoint x="906" y="340" as="targetPoint"/>
                        <Array as="points">
                            <mxPoint x="746" y="280"/>
                            <mxPoint x="906" y="280"/>
                        </Array>
                    </mxGeometry>
                </mxCell>
                <mxCell id="40" value="b-Node" style="text;html=1;align=center;verticalAlign=middle;resizable=0;points=[];autosize=1;strokeColor=none;fillColor=none;fontColor=#000000;" vertex="1" parent="1">
                    <mxGeometry x="876" y="350" width="60" height="30" as="geometry"/>
                </mxCell>
                <mxCell id="41" value="" style="group;strokeColor=#000000;" vertex="1" connectable="0" parent="1">
                    <mxGeometry x="260" y="330" width="466" height="60" as="geometry"/>
                </mxCell>
                <mxCell id="22" value="stream" style="rounded=0;whiteSpace=wrap;html=1;fillColor=#1ba1e2;fontColor=#000000;strokeColor=#000000;" vertex="1" parent="41">
                    <mxGeometry width="190" height="30" as="geometry"/>
                </mxCell>
                <mxCell id="23" value="iskey=1" style="rounded=0;whiteSpace=wrap;html=1;fillColor=#cdeb8b;strokeColor=#000000;fontColor=#000000;" vertex="1" parent="41">
                    <mxGeometry y="30" width="90" height="30" as="geometry"/>
                </mxCell>
                <mxCell id="24" value="raxNode" style="rounded=0;whiteSpace=wrap;html=1;fillColor=#1ba1e2;fontColor=#000000;strokeColor=#000000;" vertex="1" parent="41">
                    <mxGeometry width="466" height="30" as="geometry"/>
                </mxCell>
                <mxCell id="25" value="" style="edgeStyle=none;html=1;fontColor=#000000;strokeColor=#000000;" edge="1" parent="41" source="24">
                    <mxGeometry relative="1" as="geometry">
                        <mxPoint x="340" y="30" as="targetPoint"/>
                    </mxGeometry>
                </mxCell>
                <mxCell id="26" value="isnull=0" style="rounded=0;whiteSpace=wrap;html=1;fillColor=#cdeb8b;strokeColor=#000000;fontColor=#000000;" vertex="1" parent="41">
                    <mxGeometry x="90" y="30" width="90" height="30" as="geometry"/>
                </mxCell>
                <mxCell id="27" value="iscompr=0" style="rounded=0;whiteSpace=wrap;html=1;fillColor=#cdeb8b;strokeColor=#000000;fontColor=#000000;" vertex="1" parent="41">
                    <mxGeometry x="180" y="30" width="90" height="30" as="geometry"/>
                </mxCell>
                <mxCell id="29" value="value=foot" style="rounded=0;whiteSpace=wrap;html=1;fillColor=#fa6800;strokeColor=#000000;fontColor=#000000;" vertex="1" parent="41">
                    <mxGeometry x="360" y="30" width="106" height="30" as="geometry"/>
                </mxCell>
                <mxCell id="30" value="size=0" style="rounded=0;whiteSpace=wrap;html=1;fillColor=#cdeb8b;strokeColor=#000000;fontColor=#000000;" vertex="1" parent="41">
                    <mxGeometry x="270" y="30" width="90" height="30" as="geometry"/>
                </mxCell>
            </root>
        </mxGraphModel>
    </diagram>
</mxfile>